<svg id="visual" viewBox="0 0 5000 3200" width="5000" height="3200" xmlns="http://www.w3.org/2000/svg" xmlns:xlink="http://www.w3.org/1999/xlink" version="1.1"><g><g transform="translate(3297 2700)"><path d="M0 -436L377.6 -218L377.6 218L0 436L-377.6 218L-377.6 -218Z" fill="#ff1867"></path></g><g transform="translate(423 1972)"><path d="M0 -196L169.7 -98L169.7 98L0 196L-169.7 98L-169.7 -98Z" fill="#ff1867"></path></g><g transform="translate(3599 1805)"><path d="M0 -98L84.9 -49L84.9 49L0 98L-84.9 49L-84.9 -49Z" fill="#ff1867"></path></g><g transform="translate(3279 74)"><path d="M0 -107L92.7 -53.5L92.7 53.5L0 107L-92.7 53.5L-92.7 -53.5Z" fill="#ff1867"></path></g><g transform="translate(944 515)"><path d="M0 -169L146.4 -84.5L146.4 84.5L0 169L-146.4 84.5L-146.4 -84.5Z" fill="#ff1867"></path></g><g transform="translate(4832 2148)"><path d="M0 -297L257.2 -148.5L257.2 148.5L0 297L-257.2 148.5L-257.2 -148.5Z" fill="#ff1867"></path></g><g transform="translate(1998 272)"><path d="M0 -352L304.8 -176L304.8 176L0 352L-304.8 176L-304.8 -176Z" fill="#ff1867"></path></g><g transform="translate(1934 1565)"><path d="M0 -98L84.9 -49L84.9 49L0 98L-84.9 49L-84.9 -49Z" fill="#ff1867"></path></g><g transform="translate(2154 2541)"><path d="M0 -229L198.3 -114.5L198.3 114.5L0 229L-198.3 114.5L-198.3 -114.5Z" fill="#ff1867"></path></g><g transform="translate(4127 796)"><path d="M0 -59L51.1 -29.5L51.1 29.5L0 59L-51.1 29.5L-51.1 -29.5Z" fill="#ff1867"></path></g><g transform="translate(4990 276)"><path d="M0 -196L169.7 -98L169.7 98L0 196L-169.7 98L-169.7 -98Z" fill="#ff1867"></path></g><g transform="translate(4443 3009)"><path d="M0 -212L183.6 -106L183.6 106L0 212L-183.6 106L-183.6 -106Z" fill="#ff1867"></path></g><g transform="translate(2601 926)"><path d="M0 -169L146.4 -84.5L146.4 84.5L0 169L-146.4 84.5L-146.4 -84.5Z" fill="#ff1867"></path></g><g transform="translate(517 2884)"><path d="M0 -174L150.7 -87L150.7 87L0 174L-150.7 87L-150.7 -87Z" fill="#ff1867"></path></g><g transform="translate(15 215)"><path d="M0 -279L241.6 -139.5L241.6 139.5L0 279L-241.6 139.5L-241.6 -139.5Z" fill="#ff1867"></path></g><g transform="translate(1365 3174)"><path d="M0 -58L50.2 -29L50.2 29L0 58L-50.2 29L-50.2 -29Z" fill="#ff1867"></path></g><g transform="translate(4966 1259)"><path d="M0 -421L364.6 -210.5L364.6 210.5L0 421L-364.6 210.5L-364.6 -210.5Z" fill="#ff1867"></path></g><g transform="translate(243 1064)"><path d="M0 -295L255.5 -147.5L255.5 147.5L0 295L-255.5 147.5L-255.5 -147.5Z" fill="#ff1867"></path></g></g></svg>