<?xml version="1.0" ?><svg height="72" id="svg1025" version="1.1" viewBox="0 0 19.05 19.050001" width="72" xmlns="http://www.w3.org/2000/svg" xmlns:inkscape="http://www.inkscape.org/namespaces/inkscape" xmlns:sodipodi="http://sodipodi.sourceforge.net/DTD/sodipodi-0.dtd" xmlns:svg="http://www.w3.org/2000/svg"><defs id="defs1022"/><g id="layer1" style="opacity:1"><g id="g5087" style="stroke-width:0.931382" transform="matrix(1.0736737,0,0,1.0736737,-7.4535068,-2.3936859)"><path d="m 9.92164,3.993495 c -0.67353,0 -1.21552,0.541987 -1.21552,1.215515 v 11.783671 c 0,0.673528 0.54199,1.215515 1.21552,1.215515 h 5.86847 a 1.191447,1.191447 0 0 0 0.83951,-0.346004 l 5.84339,-5.802365 a 1.5160249,1.5160249 0 0 0 0.44781,-1.075761 V 5.20901 c 0,-0.673528 -0.54199,-1.215515 -1.21551,-1.215515 z" id="rect5580" style="font-variation-settings:normal;fill:none;fill-opacity:1;fill-rule:evenodd;stroke:#ff1867;stroke-width:0.465691;stroke-linecap:round;stroke-linejoin:round;stroke-miterlimit:4;stroke-dasharray:none;stroke-dashoffset:0;stroke-opacity:1;paint-order:markers fill stroke;stop-color:#000000"/><path d="m 16.28594,18.096997 v -4.887 c 0,-0.906673 0.72992,-1.636592 1.63659,-1.636592 v 0 h 4.8787" id="rect5582" style="font-variation-settings:normal;fill:none;fill-opacity:1;fill-rule:evenodd;stroke:#ff1867;stroke-width:0.465691;stroke-linecap:round;stroke-linejoin:round;stroke-miterlimit:4;stroke-dasharray:none;stroke-dashoffset:0;stroke-opacity:1;paint-order:markers fill stroke;stop-color:#000000"/><ellipse cx="13.805109" cy="8.0553827" id="circle6462" rx="0.73710322" ry="0.73718041" style="font-variation-settings:normal;fill:#ff1867;fill-opacity:1;fill-rule:evenodd;stroke:#ff1867;stroke-width:0.465691;stroke-linecap:round;stroke-linejoin:round;stroke-miterlimit:4;stroke-dasharray:none;stroke-dashoffset:0;stroke-opacity:1;paint-order:markers fill stroke;stop-color:#000000"/><ellipse cx="18.118525" cy="8.0553827" id="circle6464" rx="0.73710322" ry="0.73718041" style="font-variation-settings:normal;fill:#ff1867;fill-opacity:1;fill-rule:evenodd;stroke:#ff1867;stroke-width:0.465691;stroke-linecap:round;stroke-linejoin:round;stroke-miterlimit:4;stroke-dasharray:none;stroke-dashoffset:0;stroke-opacity:1;paint-order:markers fill stroke;stop-color:#000000"/><path d="m 16.28648,14.513614 a 4.1973929,4.1978324 0 0 1 -0.3246,0.01257 4.1973929,4.1978324 0 0 1 -3.65166,-2.12796" id="path6467" style="font-variation-settings:normal;fill:none;fill-opacity:1;fill-rule:evenodd;stroke:#ff1867;stroke-width:0.465691;stroke-linecap:round;stroke-linejoin:round;stroke-miterlimit:4;stroke-dasharray:none;stroke-dashoffset:0;stroke-opacity:1;paint-order:markers fill stroke;stop-color:#000000"/></g></g></svg>